<?xml version="1.0" encoding="UTF-8" standalone="no"?>
<!DOCTYPE svg PUBLIC "-//W3C//DTD SVG 20010904//EN"
              "http://www.w3.org/TR/2001/REC-SVG-20010904/DTD/svg10.dtd">

<svg xmlns="http://www.w3.org/2000/svg"
     width="6.44444in" height="6.44444in"
     viewBox="0 0 464 464">
  <path id="Selection"
        fill="black" stroke="black" stroke-width="1"
        d="M 216.00,0.21
           C 216.00,0.21 240.00,0.21 240.00,0.21
             264.17,0.04 294.57,7.05 317.00,16.00
             341.02,25.58 363.66,38.93 383.00,56.16
             405.84,76.52 424.98,99.50 438.73,127.00
             452.18,153.91 459.98,183.12 462.96,213.00
             462.96,213.00 462.96,222.00 462.96,222.00
             462.96,222.00 463.99,235.00 463.99,235.00
             463.99,235.00 463.09,244.00 463.09,244.00
             459.31,298.95 440.76,345.43 404.15,387.00
             387.50,405.92 363.61,425.37 341.00,436.75
             300.70,457.04 267.02,464.52 222.00,464.00
             205.22,463.80 180.18,458.58 164.00,453.72
             129.70,443.42 100.13,425.39 74.00,401.09
             74.00,401.09 66.09,393.96 66.09,393.96
             29.97,356.88 7.96,309.20 1.85,258.00
             1.85,258.00 0.00,235.00 0.00,235.00
             0.00,235.00 0.00,229.00 0.00,229.00
             0.00,229.00 0.91,219.00 0.91,219.00
             2.73,192.39 7.33,168.86 17.45,144.00
             41.38,85.21 89.61,37.59 149.00,15.06
             164.32,9.25 180.81,4.79 197.00,2.29
             197.00,2.29 216.00,0.21 216.00,0.21 Z
           M 213.00,15.14
           C 195.35,17.82 180.18,19.79 163.00,25.51
             108.88,43.54 64.27,81.97 38.75,133.00
             38.75,133.00 31.45,148.00 31.45,148.00
             -1.70,229.21 15.69,322.68 78.00,385.00
             86.62,393.62 91.06,398.13 101.00,405.52
             119.05,418.95 140.66,430.53 162.00,437.67
             177.19,442.75 202.14,448.81 218.00,449.00
             218.00,449.00 241.00,449.00 241.00,449.00
             269.51,448.96 306.85,438.36 332.00,425.11
             349.97,415.64 368.27,402.90 382.83,388.72
             454.70,318.71 469.66,208.51 419.42,122.00
             408.32,102.87 394.27,85.23 377.71,70.50
             359.42,54.23 338.70,40.64 316.00,31.40
             295.09,22.88 266.64,15.04 244.00,15.14
             244.00,15.14 213.00,15.14 213.00,15.14 Z
           M 174.00,153.00
           C 176.64,153.00 184.73,152.69 186.73,153.60
             189.18,154.71 189.80,157.40 192.22,159.78
             196.94,164.42 205.93,165.75 210.26,159.78
             213.64,155.13 210.49,150.87 206.00,148.80
             198.74,145.47 176.92,145.26 176.04,125.00
             174.68,93.84 224.30,93.92 225.00,125.00
             221.98,125.00 214.77,125.48 212.39,123.98
             209.27,122.01 208.60,116.31 201.00,115.37
             196.32,114.79 189.28,118.40 190.84,123.99
             192.46,129.74 201.06,131.23 206.00,132.72
             218.10,136.36 227.44,140.41 226.96,155.00
             226.61,165.57 219.50,174.49 209.00,176.81
             206.54,177.12 201.67,177.03 199.00,176.81
             192.88,176.92 186.99,175.37 182.17,171.39
             176.49,166.70 174.59,160.04 174.00,153.00 Z
           M 229.00,103.00
           C 229.00,103.00 275.00,103.00 275.00,103.00
             276.99,103.00 280.81,102.77 282.33,104.02
             284.73,105.87 284.54,114.16 282.33,116.01
             280.22,117.66 267.28,117.00 264.00,117.00
             264.00,117.00 264.00,167.00 264.00,167.00
             263.87,176.21 262.07,175.00 250.00,175.00
             250.00,175.00 250.00,117.00 250.00,117.00
             246.32,117.00 232.04,117.95 230.02,115.40
             228.52,113.51 229.00,105.66 229.00,103.00 Z
           M 130.00,104.53
           C 132.64,104.10 133.31,104.04 136.00,104.00
             140.48,103.95 143.72,103.83 148.00,105.47
             177.63,116.81 178.98,160.62 150.00,173.69
             144.55,176.15 141.81,176.06 136.00,176.00
             120.26,175.81 108.17,162.99 105.23,148.00
             104.87,144.71 104.99,141.33 105.23,138.00
             105.08,121.91 114.44,109.13 130.00,104.53 Z
           M 310.00,104.52
           C 314.98,103.73 321.14,103.61 326.00,105.04
             358.32,114.54 358.83,162.73 328.00,174.53
             323.72,176.17 320.48,176.05 316.00,176.00
             297.21,175.78 284.73,158.73 284.04,141.00
             283.38,124.24 293.65,109.02 310.00,104.52 Z
           M 57.00,175.00
           C 57.00,175.00 57.00,118.00 57.00,118.00
             57.02,109.36 57.36,109.02 66.00,109.00
             72.53,108.99 82.20,108.17 88.00,110.92
             96.82,115.10 100.53,126.00 96.77,135.00
             95.65,137.69 93.84,139.80 92.00,142.00
             104.95,149.02 103.75,167.16 91.00,173.55
             87.95,175.07 85.29,174.98 82.00,175.00
             82.00,175.00 57.00,175.00 57.00,175.00 Z
           M 356.00,175.00
           C 356.00,175.00 356.00,118.00 356.00,118.00
             356.00,116.01 355.77,112.19 357.02,110.60
             358.81,108.34 368.19,108.51 370.47,109.99
             373.30,111.83 375.26,117.91 376.89,121.00
             381.94,130.59 386.71,141.20 393.00,150.00
             393.00,150.00 393.00,109.00 393.00,109.00
             393.00,109.00 406.00,109.00 406.00,109.00
             406.00,109.00 406.00,175.00 406.00,175.00
             406.00,175.00 392.61,174.01 392.61,174.01
             392.61,174.01 385.69,163.00 385.69,163.00
             385.69,163.00 369.00,133.00 369.00,133.00
             369.00,133.00 370.00,157.00 370.00,157.00
             370.00,157.00 369.00,176.00 369.00,176.00
             369.00,176.00 356.00,175.00 356.00,175.00 Z
           M 135.00,118.33
           C 129.04,119.75 124.24,122.52 121.09,128.00
             112.67,142.61 122.49,164.58 141.00,161.79
             163.85,158.34 162.96,115.86 135.00,118.33 Z
           M 314.00,118.33
           C 290.46,123.98 293.48,160.33 316.00,161.90
             339.04,163.51 344.89,128.19 325.00,119.53
             321.15,117.86 318.06,117.89 314.00,118.33 Z
           M 71.00,136.00
           C 74.03,136.00 80.15,136.42 82.61,134.83
             87.15,131.88 86.13,125.03 81.79,122.45
             78.82,120.69 74.37,121.00 71.00,121.00
             71.00,121.00 71.00,136.00 71.00,136.00 Z
           M 71.00,162.90
           C 71.00,162.90 77.00,162.90 77.00,162.90
             78.53,163.00 81.57,163.06 82.96,162.90
             88.74,161.15 89.02,153.68 85.57,150.74
             83.28,148.79 78.88,148.90 76.00,149.02
             72.72,149.16 70.73,149.37 70.15,153.06
             69.74,155.69 70.64,160.23 71.00,162.90 Z
           M 111.00,269.00
           C 122.09,269.00 136.67,269.90 144.20,259.91
             153.44,247.63 145.10,226.58 129.00,228.20
             121.64,228.94 115.58,235.18 113.44,242.00
             112.15,246.12 111.85,251.42 109.30,254.90
             103.90,262.25 94.00,261.09 86.00,261.00
             81.43,260.94 79.41,260.56 75.00,259.36
             58.85,254.95 59.21,247.17 63.30,233.00
             67.73,217.66 78.37,207.38 93.00,201.45
             116.27,192.03 154.00,192.07 176.00,204.88
             186.40,210.93 195.65,221.86 197.84,234.00
             197.84,234.00 197.84,245.00 197.84,245.00
             197.92,251.16 196.80,254.71 193.53,260.00
             187.23,270.22 180.65,272.51 171.00,278.00
             190.84,283.80 207.73,295.22 208.00,318.00
             208.00,318.00 208.00,328.00 208.00,328.00
             207.85,339.92 201.14,352.52 192.83,360.83
             179.86,373.80 156.09,380.78 138.00,381.00
             110.18,381.32 77.50,376.35 64.32,348.00
             62.40,343.86 59.88,334.57 59.29,330.00
             58.80,326.23 58.52,320.34 60.74,317.10
             63.15,313.59 68.11,311.70 72.00,310.34
             81.73,306.95 92.25,305.40 102.00,309.68
             120.75,317.91 105.63,342.86 129.00,348.42
             131.56,348.92 133.41,348.97 136.00,348.42
             138.58,348.09 141.74,347.11 144.00,345.78
             147.68,343.59 149.85,340.82 151.67,337.00
             153.98,332.15 154.05,329.23 154.00,324.00
             153.84,309.05 144.93,300.18 130.00,300.00
             126.48,299.96 114.04,300.95 112.02,298.40
             110.85,296.92 111.01,293.82 111.00,292.00
             111.00,292.00 111.00,269.00 111.00,269.00 Z
           M 244.00,246.04
           C 232.71,247.49 236.41,246.82 226.00,246.04
             223.99,245.95 220.32,246.27 218.74,245.01
             216.85,243.50 216.25,237.38 216.09,235.00
             215.95,232.92 215.69,228.40 216.99,226.72
             218.45,224.85 224.54,223.75 227.00,222.97
             232.64,221.18 240.23,217.67 245.00,214.22
             260.10,203.30 253.01,198.03 267.00,198.00
             267.00,198.00 287.00,198.00 287.00,198.00
             288.95,198.04 291.63,197.90 292.98,199.60
             294.23,201.19 294.00,205.01 294.00,207.00
             294.00,207.00 294.00,335.00 294.00,335.00
             294.00,335.00 294.00,362.00 294.00,362.00
             294.00,364.41 294.40,370.60 292.98,372.40
             291.41,374.38 287.30,374.00 285.00,374.00
             285.00,374.00 244.00,374.00 244.00,374.00
             244.00,374.00 244.00,246.04 244.00,246.04 Z
           M 314.00,226.00
           C 323.64,224.51 337.52,218.92 345.00,212.68
             358.61,201.32 351.87,198.03 365.00,198.00
             365.00,198.00 392.00,198.00 392.00,198.00
             392.00,198.00 392.00,374.00 392.00,374.00
             392.00,374.00 343.00,374.00 343.00,374.00
             343.00,374.00 343.00,256.00 343.00,256.00
             342.98,243.72 340.40,246.98 329.00,247.00
             326.00,247.00 319.89,247.34 317.43,245.71
             313.83,243.32 314.00,230.22 314.00,226.00 Z" />
</svg>
