<?xml version="1.0" encoding="UTF-8" standalone="no"?>
<!DOCTYPE svg PUBLIC "-//W3C//DTD SVG 20010904//EN"
              "http://www.w3.org/TR/2001/REC-SVG-20010904/DTD/svg10.dtd">

<svg xmlns="http://www.w3.org/2000/svg"
     width="3.70833in" height="3.66667in"
     viewBox="0 0 267 264">
  <path id="Selection"
        fill="black" stroke="black" stroke-width="1"
        d="M 130.00,0.67
           C 136.59,-0.36 136.20,0.51 142.00,0.67
             154.39,1.76 163.02,2.76 175.00,6.67
             219.72,21.25 255.05,58.51 264.40,105.00
             265.57,110.81 266.93,119.14 267.00,125.00
             267.23,144.67 266.02,159.33 258.94,178.00
             238.26,232.53 187.56,264.67 130.00,264.00
             78.34,263.39 30.14,230.33 9.87,183.00
             -5.28,147.61 -3.00,103.78 15.31,70.00
             33.58,36.29 64.20,13.73 101.00,4.15
             101.00,4.15 130.00,0.67 130.00,0.67 Z
           M 187.00,83.00
           C 191.83,79.55 205.07,66.01 210.00,61.00
             212.22,58.73 216.07,55.58 214.83,52.00
             213.83,49.13 208.45,44.94 206.00,43.01
             197.43,36.29 189.03,31.37 179.00,27.15
             146.43,13.44 106.77,15.42 76.00,33.00
             67.10,38.09 57.03,44.60 51.00,53.00
             51.00,53.00 72.00,74.00 72.00,74.00
             72.00,74.00 79.38,82.91 79.38,82.91
             79.38,82.91 75.00,89.00 75.00,89.00
             70.65,82.92 63.80,76.95 58.52,71.32
             53.81,66.32 50.73,61.29 44.00,59.00
             38.35,66.69 32.44,74.33 28.32,83.00
             14.16,112.80 13.46,142.24 24.95,173.00
             28.32,182.03 32.87,190.28 38.66,198.00
             40.13,199.95 43.81,205.05 46.09,205.66
             49.05,206.46 52.12,202.84 54.00,201.00
             54.00,201.00 71.00,184.00 71.00,184.00
             72.99,182.01 77.54,176.34 80.71,178.63
             84.90,181.67 77.05,187.95 75.00,190.00
             75.00,190.00 60.00,205.00 60.00,205.00
             58.42,206.59 54.87,209.88 54.34,212.00
             53.72,214.44 55.48,216.25 57.06,217.83
             62.18,222.93 73.39,229.89 80.00,233.24
             111.07,248.99 146.82,250.34 179.00,236.99
             188.26,233.15 197.11,228.17 205.00,221.99
             207.21,220.25 212.09,216.41 213.26,214.00
             214.89,210.60 212.16,208.29 209.98,206.00
             209.98,206.00 192.00,188.00 192.00,188.00
             190.13,186.10 184.55,181.34 188.29,178.63
             191.46,176.34 196.01,182.01 198.00,184.00
             198.00,184.00 213.00,199.00 213.00,199.00
             214.59,200.58 217.87,204.13 220.00,204.66
             223.94,205.65 227.51,199.71 229.41,197.00
             235.58,188.22 240.57,178.16 244.00,168.00
             253.53,139.75 251.25,105.06 236.42,79.00
             232.40,71.94 228.32,64.23 222.00,59.00
             222.00,59.00 192.00,89.00 192.00,89.00
             192.00,89.00 187.00,83.00 187.00,83.00 Z
           M 67.00,137.00
           C 66.98,142.75 66.89,147.06 63.35,151.98
             56.40,161.65 41.74,162.60 33.04,154.79
             25.16,147.71 24.89,135.82 25.00,126.00
             25.08,119.70 26.46,112.10 30.41,107.02
             37.98,97.30 53.14,96.11 61.67,105.18
             66.45,110.27 66.82,115.53 68.00,122.00
             68.00,122.00 54.00,123.00 54.00,123.00
             53.17,117.25 49.02,107.73 42.51,115.23
             39.87,118.26 39.10,124.09 39.01,128.00
             38.91,132.34 39.22,139.31 41.73,142.94
             47.59,151.42 52.51,143.25 54.00,137.00
             54.00,137.00 67.00,137.00 67.00,137.00 Z
           M 74.00,159.00
           C 74.00,159.00 74.00,115.00 74.00,115.00
             74.00,101.73 72.99,100.15 81.00,100.00
             91.71,99.81 106.04,98.55 111.67,110.00
             113.58,114.19 113.55,123.72 111.67,128.00
             110.21,131.76 107.46,133.99 107.11,137.00
             107.11,137.00 114.00,159.00 114.00,159.00
             110.61,159.00 102.18,159.79 99.84,157.40
             94.79,152.27 97.45,140.62 88.00,139.00
             88.00,139.00 88.00,159.00 88.00,159.00
             88.00,159.00 74.00,159.00 74.00,159.00 Z
           M 121.00,159.00
           C 121.00,159.00 121.00,108.00 121.00,108.00
             121.06,98.97 122.28,100.00 135.00,100.00
             135.00,100.00 135.00,159.00 135.00,159.00
             135.00,159.00 121.00,159.00 121.00,159.00 Z
           M 156.00,159.00
           C 144.32,159.00 143.06,159.90 143.00,151.00
             143.00,151.00 143.00,107.00 143.00,107.00
             143.14,99.51 145.26,100.01 152.00,100.00
             154.25,100.00 159.54,99.63 161.27,100.99
             162.99,102.36 163.85,107.77 164.35,110.00
             166.02,117.40 167.02,124.98 170.00,132.00
             170.00,132.00 175.00,110.00 175.00,110.00
             175.00,110.00 178.51,101.02 178.51,101.02
             178.51,101.02 196.00,100.00 196.00,100.00
             196.00,100.00 196.00,159.00 196.00,159.00
             196.00,159.00 183.00,159.00 183.00,159.00
             183.00,159.00 183.00,135.00 183.00,135.00
             183.00,135.00 182.00,125.00 182.00,125.00
             182.00,125.00 176.87,149.00 176.87,149.00
             176.87,149.00 173.44,157.98 173.44,157.98
             173.44,157.98 164.00,159.00 164.00,159.00
             163.13,152.55 157.56,129.41 155.00,124.00
             155.00,124.00 156.00,159.00 156.00,159.00 Z
           M 205.00,100.00
           C 205.00,100.00 231.00,100.00 231.00,100.00
             231.00,100.00 237.98,101.60 237.98,101.60
             237.98,101.60 239.00,113.00 239.00,113.00
             239.00,113.00 219.00,113.00 219.00,113.00
             219.00,113.00 219.00,123.00 219.00,123.00
             219.00,123.00 237.00,123.00 237.00,123.00
             237.00,123.00 237.00,135.00 237.00,135.00
             237.00,135.00 219.00,135.00 219.00,135.00
             219.00,135.00 219.00,146.00 219.00,146.00
             219.00,146.00 240.00,147.00 240.00,147.00
             240.00,147.00 239.00,159.00 239.00,159.00
             239.00,159.00 205.00,159.00 205.00,159.00
             205.00,159.00 205.00,100.00 205.00,100.00 Z
           M 88.00,127.00
           C 90.49,126.39 95.80,126.01 97.40,124.40
             99.71,122.08 99.51,115.90 96.69,114.02
             94.73,112.72 90.36,113.00 88.00,113.00
             88.00,113.00 88.00,127.00 88.00,127.00 Z" />
</svg>
