<?xml version="1.0" encoding="UTF-8" standalone="no"?>
<!DOCTYPE svg PUBLIC "-//W3C//DTD SVG 20010904//EN"
              "http://www.w3.org/TR/2001/REC-SVG-20010904/DTD/svg10.dtd">

<svg xmlns="http://www.w3.org/2000/svg"
     width="3.70833in" height="3.66667in"
     viewBox="0 0 267 264">
  <path id="Selection #2"
        fill="none" stroke="black" stroke-width="1"
        d="M 117.00,1.21
           C 117.00,1.21 145.00,1.21 145.00,1.21
             151.86,1.08 161.30,2.91 168.00,4.63
             204.81,14.06 237.73,40.69 254.22,75.00
             264.77,96.98 267.28,114.97 267.00,139.00
             266.88,149.05 263.86,163.43 260.67,173.00
             255.50,188.49 247.89,202.35 237.54,215.00
             223.65,231.97 209.57,242.27 190.00,251.74
             171.61,260.64 150.30,264.23 130.00,264.00
             114.35,263.81 98.60,260.12 84.00,254.68
             69.63,249.32 53.22,239.13 42.28,228.42
             27.89,214.33 17.10,200.87 9.45,182.00
             -13.54,125.24 5.19,62.44 54.00,25.89
             73.18,11.53 93.66,4.95 117.00,1.21 Z
           M 187.00,83.00
           C 193.04,78.67 203.30,67.74 209.00,62.00
             211.39,59.60 216.16,55.82 214.83,52.00
             213.83,49.13 208.45,44.94 206.00,43.01
             198.35,37.01 188.95,31.25 180.00,27.43
             148.17,13.82 110.86,15.33 80.00,30.76
             70.81,35.35 55.40,44.70 51.00,54.00
             51.00,54.00 72.00,74.00 72.00,74.00
             72.00,74.00 79.38,82.91 79.38,82.91
             79.38,82.91 75.00,89.00 75.00,89.00
             69.64,81.51 60.36,73.02 53.82,65.96
             51.70,63.68 47.70,58.80 44.17,60.17
             41.25,61.30 34.64,71.94 32.69,75.00
             21.64,92.40 16.97,113.62 17.00,134.00
             17.03,152.88 23.91,175.02 33.81,191.00
             35.82,194.23 43.27,205.80 47.04,205.80
             49.67,205.80 53.21,201.77 55.00,200.00
             55.00,200.00 71.00,184.00 71.00,184.00
             72.99,182.01 77.54,176.34 80.71,178.63
             85.31,181.96 74.31,190.69 72.00,193.00
             72.00,193.00 58.02,207.00 58.02,207.00
             56.29,208.82 53.62,211.18 54.34,214.00
             55.08,216.92 61.50,221.66 64.00,223.52
             96.31,247.57 139.74,252.56 177.00,237.80
             187.80,233.52 198.02,227.76 207.00,220.38
             209.44,218.38 214.57,214.63 213.66,211.00
             213.10,208.73 208.74,204.74 207.00,203.00
             207.00,203.00 189.11,185.00 189.11,185.00
             184.54,179.48 188.86,176.93 191.29,177.96
             192.89,178.65 197.53,183.53 199.00,185.00
             199.00,185.00 213.00,199.00 213.00,199.00
             215.08,201.07 218.70,205.51 221.99,204.66
             224.73,203.96 227.81,199.26 229.41,197.00
             234.89,189.23 239.22,180.89 242.58,172.00
             253.68,142.59 252.15,106.50 236.42,79.00
             232.46,72.08 228.33,63.95 222.00,59.00
             222.00,59.00 192.00,89.00 192.00,89.00
             192.00,89.00 187.00,83.00 187.00,83.00 Z" />
  <path id="Selection #1"
        fill="none" stroke="black" stroke-width="1"
        d="M 67.00,137.00
           C 66.98,142.75 66.89,147.06 63.35,151.98
             56.40,161.65 41.74,162.60 33.04,154.79
             25.16,147.71 24.89,135.82 25.00,126.00
             25.08,119.70 26.46,112.10 30.41,107.02
             37.98,97.30 53.14,96.11 61.67,105.18
             66.45,110.27 66.82,115.53 68.00,122.00
             68.00,122.00 54.00,123.00 54.00,123.00
             53.17,117.25 49.02,107.73 42.51,115.23
             39.87,118.26 39.10,124.09 39.01,128.00
             38.91,132.34 39.22,139.31 41.73,142.94
             47.59,151.42 52.51,143.25 54.00,137.00
             54.00,137.00 67.00,137.00 67.00,137.00 Z
           M 74.00,159.00
           C 74.00,159.00 74.00,115.00 74.00,115.00
             74.00,101.73 72.99,100.15 81.00,100.00
             91.71,99.81 106.04,98.55 111.67,110.00
             113.58,114.19 113.55,123.72 111.67,128.00
             110.21,131.76 107.46,133.99 107.11,137.00
             107.11,137.00 114.00,159.00 114.00,159.00
             110.61,159.00 102.18,159.79 99.84,157.40
             94.79,152.27 97.45,140.62 88.00,139.00
             88.00,139.00 88.00,159.00 88.00,159.00
             88.00,159.00 74.00,159.00 74.00,159.00 Z
           M 121.00,159.00
           C 121.00,159.00 121.00,108.00 121.00,108.00
             121.06,98.97 122.28,100.00 135.00,100.00
             135.00,100.00 135.00,159.00 135.00,159.00
             135.00,159.00 121.00,159.00 121.00,159.00 Z
           M 156.00,159.00
           C 144.32,159.00 143.06,159.90 143.00,151.00
             143.00,151.00 143.00,107.00 143.00,107.00
             143.14,99.51 145.26,100.01 152.00,100.00
             154.25,100.00 159.54,99.63 161.27,100.99
             162.99,102.36 163.85,107.77 164.35,110.00
             166.02,117.40 167.02,124.98 170.00,132.00
             170.00,132.00 175.00,110.00 175.00,110.00
             175.00,110.00 178.51,101.02 178.51,101.02
             178.51,101.02 196.00,100.00 196.00,100.00
             196.00,100.00 196.00,159.00 196.00,159.00
             196.00,159.00 183.00,159.00 183.00,159.00
             183.00,159.00 183.00,135.00 183.00,135.00
             183.00,135.00 182.00,125.00 182.00,125.00
             182.00,125.00 176.87,149.00 176.87,149.00
             176.87,149.00 173.44,157.98 173.44,157.98
             173.44,157.98 164.00,159.00 164.00,159.00
             163.13,152.55 157.56,129.41 155.00,124.00
             155.00,124.00 156.00,159.00 156.00,159.00 Z
           M 205.00,100.00
           C 205.00,100.00 231.00,100.00 231.00,100.00
             231.00,100.00 237.98,101.60 237.98,101.60
             237.98,101.60 239.00,113.00 239.00,113.00
             239.00,113.00 219.00,113.00 219.00,113.00
             219.00,113.00 219.00,123.00 219.00,123.00
             219.00,123.00 237.00,123.00 237.00,123.00
             237.00,123.00 237.00,135.00 237.00,135.00
             237.00,135.00 219.00,135.00 219.00,135.00
             219.00,135.00 219.00,146.00 219.00,146.00
             219.00,146.00 240.00,147.00 240.00,147.00
             240.00,147.00 239.00,159.00 239.00,159.00
             239.00,159.00 205.00,159.00 205.00,159.00
             205.00,159.00 205.00,100.00 205.00,100.00 Z
           M 88.00,127.00
           C 90.49,126.39 95.80,126.01 97.40,124.40
             99.71,122.08 99.51,115.90 96.69,114.02
             94.73,112.72 90.36,113.00 88.00,113.00
             88.00,113.00 88.00,127.00 88.00,127.00 Z" />
</svg>
