<?xml version="1.0" encoding="UTF-8" standalone="no"?>
<!DOCTYPE svg PUBLIC "-//W3C//DTD SVG 20010904//EN"
              "http://www.w3.org/TR/2001/REC-SVG-20010904/DTD/svg10.dtd">

<svg xmlns="http://www.w3.org/2000/svg"
     width="3.98611in" height="3.94444in"
     viewBox="0 0 287 284">
  <path id="Selection"
        fill="black" stroke="none" stroke-width="1"
        d="M 0.00,0.00
           C 0.00,0.00 287.00,0.00 287.00,0.00
             287.00,0.00 287.00,95.00 287.00,95.00
             287.00,95.00 287.00,123.00 287.00,123.00
             287.00,123.00 286.00,137.00 286.00,137.00
             286.00,120.30 283.18,107.50 277.00,92.00
             270.37,75.39 261.86,61.32 249.83,48.00
             204.33,-2.39 130.72,-13.70 72.00,19.87
             42.89,36.51 18.18,66.07 7.67,98.00
             4.79,106.76 3.01,114.90 1.59,124.00
             0.96,128.06 1.44,132.38 0.00,136.00
             0.00,136.00 0.00,0.00 0.00,0.00 Z
           M 134.00,10.21
           C 134.00,10.21 140.00,10.21 140.00,10.21
             198.07,9.32 248.72,42.17 269.42,97.00
             273.45,107.66 276.86,121.58 277.00,133.00
             277.17,148.11 277.24,159.08 273.53,174.00
             264.23,211.35 240.19,239.87 207.00,258.58
             185.53,270.68 161.27,274.28 137.00,274.00
             125.53,273.86 111.88,270.96 101.00,267.33
             59.36,253.46 26.43,220.52 14.43,178.00
             9.90,161.95 9.81,150.34 10.00,134.00
             10.15,121.27 14.85,102.70 19.87,91.00
             35.00,55.77 63.79,29.50 100.00,17.08
             111.09,13.27 122.50,12.07 134.00,10.21 Z
           M 201.00,99.00
           C 200.40,97.51 198.87,94.49 198.99,93.00
             199.19,90.44 202.27,87.74 204.00,86.00
             204.00,86.00 217.75,72.92 217.75,72.92
             220.59,70.06 226.78,65.51 224.30,61.00
             222.95,58.56 218.30,55.02 216.00,53.21
             207.71,46.68 199.69,41.87 190.00,37.72
             157.25,23.69 117.05,25.44 86.00,43.15
             77.27,48.13 66.91,54.82 61.00,63.00
             61.00,63.00 92.00,94.00 92.00,94.00
             90.48,95.01 87.38,97.61 85.58,97.32
             83.42,96.98 77.76,90.76 76.00,89.00
             70.45,83.45 60.61,72.07 54.00,69.00
             45.67,81.48 42.31,83.96 35.87,99.00
             24.17,126.31 24.51,155.42 35.06,183.00
             38.09,190.91 43.82,201.22 48.89,208.00
             50.30,209.88 54.00,215.06 56.17,215.66
             59.05,216.46 62.17,212.78 64.00,211.00
             64.00,211.00 81.00,194.00 81.00,194.00
             82.99,192.01 87.54,186.34 90.71,188.63
             94.70,191.52 87.96,197.03 86.00,199.00
             86.00,199.00 70.00,215.00 70.00,215.00
             65.12,219.91 61.49,222.30 67.06,227.71
             71.34,231.87 79.72,237.38 85.00,240.42
             117.05,258.87 154.91,260.54 189.00,246.80
             198.78,242.86 206.70,238.33 215.00,231.79
             217.19,230.07 222.07,226.38 223.18,223.99
             224.70,220.69 222.04,218.24 219.96,216.00
             219.96,216.00 203.00,199.00 203.00,199.00
             200.77,196.76 194.45,191.77 198.29,188.46
             201.61,185.60 205.83,190.79 207.91,193.00
             207.91,193.00 222.17,208.00 222.17,208.00
             223.82,209.81 227.68,214.08 230.00,214.66
             233.80,215.63 237.43,209.64 239.28,207.00
             244.60,199.41 250.98,186.84 253.81,178.00
             262.78,149.96 260.95,118.39 247.75,92.00
             243.94,84.38 238.55,74.46 232.00,69.00
             232.00,69.00 201.00,99.00 201.00,99.00 Z
           M 77.00,147.00
           C 77.00,153.68 77.08,157.44 72.61,162.98
             65.25,172.11 49.40,172.77 41.53,163.82
             33.35,154.52 33.00,130.69 38.38,120.00
             43.82,109.18 57.84,105.61 68.00,111.99
             73.19,115.25 75.78,120.16 77.10,126.00
             77.53,127.91 78.15,130.53 76.39,131.98
             74.57,133.47 66.60,133.00 64.00,133.00
             63.21,129.16 61.57,121.55 56.01,122.88
             53.93,123.38 52.27,125.22 51.31,127.04
             48.43,132.54 49.41,140.15 50.00,146.00
             50.39,149.79 52.09,156.37 57.00,156.37
             61.90,156.37 62.59,149.63 64.72,147.99
             66.67,146.49 74.32,147.00 77.00,147.00 Z
           M 84.00,110.00
           C 96.56,110.00 119.18,106.53 122.68,123.00
             123.15,125.23 123.37,128.71 123.25,131.00
             123.12,133.73 122.77,136.52 121.55,139.00
             120.01,142.13 117.18,144.30 117.36,148.00
             117.36,148.00 124.00,169.00 124.00,169.00
             120.55,169.00 112.25,169.79 109.81,167.40
             104.30,161.99 107.55,150.64 98.00,149.00
             98.00,149.00 98.00,169.00 98.00,169.00
             98.00,169.00 84.00,169.00 84.00,169.00
             84.00,169.00 84.00,110.00 84.00,110.00 Z
           M 131.00,110.00
           C 131.00,110.00 145.00,110.00 145.00,110.00
             145.00,110.00 145.00,169.00 145.00,169.00
             145.00,169.00 131.00,169.00 131.00,169.00
             131.00,169.00 131.00,110.00 131.00,110.00 Z
           M 153.00,110.00
           C 153.00,110.00 171.42,111.02 171.42,111.02
             171.42,111.02 174.58,120.00 174.58,120.00
             174.58,120.00 180.00,142.00 180.00,142.00
             180.00,142.00 187.00,110.00 187.00,110.00
             190.58,110.00 203.97,109.07 205.98,111.60
             207.23,113.19 207.00,117.01 207.00,119.00
             207.00,119.00 207.00,155.00 207.00,155.00
             207.00,157.94 207.73,166.13 205.40,167.98
             203.51,169.48 195.66,169.00 193.00,169.00
             193.00,169.00 192.00,136.00 192.00,136.00
             192.00,136.00 186.73,160.00 186.73,160.00
             186.73,160.00 183.49,167.98 183.49,167.98
             183.49,167.98 174.00,169.00 174.00,169.00
             174.00,169.00 166.00,137.00 166.00,137.00
             166.00,137.00 166.00,169.00 166.00,169.00
             166.00,169.00 153.00,169.00 153.00,169.00
             153.00,169.00 153.00,110.00 153.00,110.00 Z
           M 215.00,110.00
           C 215.00,110.00 249.00,110.00 249.00,110.00
             249.00,110.00 249.00,123.00 249.00,123.00
             249.00,123.00 229.00,123.00 229.00,123.00
             229.00,123.00 229.00,133.00 229.00,133.00
             229.00,133.00 246.00,132.00 246.00,132.00
             246.00,132.00 247.00,145.00 247.00,145.00
             247.00,145.00 229.00,145.00 229.00,145.00
             229.00,145.00 229.00,156.00 229.00,156.00
             232.46,156.00 246.25,155.32 248.33,157.02
             250.69,158.83 250.50,166.20 248.33,168.01
             246.95,169.07 244.59,168.97 243.00,169.00
             243.00,169.00 215.00,169.00 215.00,169.00
             215.00,169.00 215.00,110.00 215.00,110.00 Z
           M 98.00,136.00
           C 100.32,136.00 104.66,136.29 106.57,134.98
             109.67,132.85 109.67,126.15 106.57,124.02
             104.66,122.71 100.32,123.00 98.00,123.00
             98.00,123.00 98.00,136.00 98.00,136.00 Z
           M 286.00,147.00
           C 286.00,147.00 287.00,161.00 287.00,161.00
             287.00,161.00 287.00,189.00 287.00,189.00
             287.00,189.00 287.00,284.00 287.00,284.00
             287.00,284.00 195.00,284.00 195.00,284.00
             195.00,284.00 169.00,284.00 169.00,284.00
             169.00,284.00 155.00,283.00 155.00,283.00
             171.09,282.95 191.66,276.40 206.00,269.25
             251.55,246.53 286.00,198.92 286.00,147.00 Z
           M 0.00,150.00
           C 0.00,150.00 2.42,165.00 2.42,165.00
             4.22,174.96 7.16,186.79 11.31,196.00
             27.37,231.63 55.32,259.93 92.00,274.19
             100.72,277.58 107.80,279.65 117.00,281.39
             117.00,281.39 132.00,284.00 132.00,284.00
             132.00,284.00 0.00,284.00 0.00,284.00
             0.00,284.00 0.00,150.00 0.00,150.00 Z" />
</svg>
