<?xml version="1.0" encoding="UTF-8" standalone="no"?>
<!DOCTYPE svg PUBLIC "-//W3C//DTD SVG 20010904//EN"
              "http://www.w3.org/TR/2001/REC-SVG-20010904/DTD/svg10.dtd">

<svg xmlns="http://www.w3.org/2000/svg"
     width="5.56944in" height="5.65278in"
     viewBox="0 0 401 407">
  <path id="Selection"
        fill="black" stroke="black" stroke-width="1"
        d="M 184.00,0.21
           C 184.00,0.21 210.00,0.21 210.00,0.21
             232.02,0.03 260.97,7.67 281.00,16.70
             308.70,29.18 330.43,45.34 350.83,68.00
             362.11,80.54 371.72,95.95 379.25,111.00
             415.22,182.95 406.63,267.72 356.79,331.00
             344.17,347.03 325.38,364.42 308.00,375.19
             283.91,390.12 261.80,398.41 234.00,403.42
             226.41,404.79 218.73,405.99 211.00,406.00
             211.00,406.00 187.00,406.00 187.00,406.00
             166.70,405.76 138.47,397.64 120.00,389.30
             101.34,380.89 85.51,371.20 70.00,357.71
             6.56,302.52 -16.04,214.17 11.34,135.00
             27.87,87.22 66.13,42.11 112.00,20.32
             129.44,12.03 147.93,5.64 167.00,2.43
             167.00,2.43 184.00,0.21 184.00,0.21 Z
           M 307.00,282.00
           C 319.19,284.29 331.24,287.75 343.00,291.67
             345.89,292.63 355.33,296.47 357.79,295.60
             360.36,294.69 362.73,289.39 363.89,287.00
             368.75,277.03 370.18,273.47 373.67,263.00
             385.42,227.75 386.57,184.68 375.96,149.00
             354.56,76.96 292.18,21.30 216.00,15.96
             216.00,15.96 208.00,15.96 208.00,15.96
             208.00,15.96 201.00,15.08 201.00,15.08
             201.00,15.08 193.00,15.91 193.00,15.91
             193.00,15.91 174.00,17.29 174.00,17.29
             149.88,20.54 125.76,29.92 105.00,42.45
             55.33,72.41 18.09,135.55 18.00,194.00
             18.00,194.00 18.00,212.00 18.00,212.00
             18.04,234.79 25.61,263.66 35.75,284.00
             38.29,289.08 46.09,305.44 50.32,307.98
             52.56,309.32 57.34,309.03 60.00,309.00
             60.00,309.00 79.00,307.15 79.00,307.15
             119.78,302.28 145.10,288.89 181.00,281.21
             209.59,275.09 223.36,274.96 252.00,275.00
             252.00,275.00 280.00,277.00 280.00,277.00
             280.00,277.00 280.00,185.00 280.00,185.00
             279.98,173.08 275.04,172.65 267.00,164.96
             267.00,164.96 235.00,134.28 235.00,134.28
             235.00,134.28 210.00,111.00 210.00,111.00
             207.46,108.47 203.02,102.78 199.00,104.17
             196.88,104.90 193.69,108.36 192.00,109.96
             192.00,109.96 179.00,122.00 179.00,122.00
             179.00,122.00 135.00,163.00 135.00,163.00
             132.45,165.52 122.54,174.52 121.56,177.18
             120.89,179.01 121.00,182.02 121.00,184.00
             121.00,184.00 121.00,240.00 121.00,240.00
             121.00,240.00 120.00,284.00 120.00,284.00
             120.00,284.00 93.00,290.00 93.00,290.00
             93.00,290.00 93.00,190.00 93.00,190.00
             93.00,190.00 64.00,190.00 64.00,190.00
             64.00,190.00 115.00,141.91 115.00,141.91
             115.00,141.91 201.00,61.00 201.00,61.00
             201.00,61.00 230.12,89.42 230.12,89.42
             230.12,89.42 282.00,139.00 282.00,139.00
             282.00,139.00 282.00,99.00 282.00,99.00
             282.00,99.00 263.00,99.00 263.00,99.00
             261.00,98.99 258.02,99.12 256.31,97.98
             253.15,95.87 253.03,84.17 255.60,81.60
             257.52,79.68 261.46,80.01 264.00,80.00
             264.00,80.00 306.00,80.00 306.00,80.00
             306.00,80.00 306.00,152.00 306.00,152.00
             306.02,162.28 308.83,162.83 316.00,170.00
             316.00,170.00 337.00,190.00 337.00,190.00
             337.00,190.00 315.00,190.00 315.00,190.00
             315.00,190.00 308.60,191.02 308.60,191.02
             308.60,191.02 307.00,199.00 307.00,199.00
             307.00,199.00 307.00,282.00 307.00,282.00 Z
           M 178.00,132.00
           C 178.00,132.00 223.00,132.00 223.00,132.00
             223.00,132.00 223.00,180.00 223.00,180.00
             223.00,180.00 178.00,180.00 178.00,180.00
             178.00,180.00 178.00,132.00 178.00,132.00 Z
           M 198.00,137.00
           C 198.00,137.00 183.09,137.00 183.09,137.00
             182.99,140.45 181.45,150.22 183.09,152.43
             185.07,154.86 194.86,154.00 198.00,154.00
             198.00,154.00 198.00,137.00 198.00,137.00 Z
           M 219.00,137.00
           C 219.00,137.00 203.00,137.00 203.00,137.00
             203.00,137.00 203.00,154.00 203.00,154.00
             205.90,154.00 215.42,154.54 217.40,152.98
             219.88,151.02 219.00,140.29 219.00,137.00 Z
           M 184.00,158.00
           C 181.73,163.32 182.00,169.32 182.00,175.00
             182.00,175.00 198.00,175.00 198.00,175.00
             198.00,175.00 198.00,159.00 198.00,159.00
             198.00,159.00 184.00,158.00 184.00,158.00 Z
           M 218.00,158.00
           C 218.00,158.00 203.00,159.00 203.00,159.00
             203.00,159.00 203.00,176.00 203.00,176.00
             203.00,176.00 218.00,176.00 218.00,176.00
             218.00,176.00 219.00,159.00 219.00,159.00
             219.00,159.00 218.00,158.00 218.00,158.00 Z
           M 354.00,308.00
           C 335.91,300.07 313.60,295.19 294.00,292.85
             251.72,287.79 208.39,291.95 169.00,308.87
             169.00,308.87 115.00,338.31 115.00,338.31
             106.68,342.82 97.12,348.42 88.00,351.00
             90.51,355.44 104.83,366.71 110.00,366.40
             113.15,366.21 127.30,358.65 131.00,356.74
             131.00,356.74 173.00,333.31 173.00,333.31
             196.12,322.72 220.69,316.68 246.00,314.91
             246.00,314.91 256.00,314.00 256.00,314.00
             269.86,313.84 292.89,315.97 306.00,320.02
             306.00,320.02 324.00,326.78 324.00,326.78
             326.25,327.84 331.78,331.08 333.91,331.08
             336.75,331.07 339.07,327.95 340.75,325.98
             345.10,320.88 350.69,313.76 354.00,308.00 Z
           M 331.00,335.00
           C 331.00,335.00 309.00,333.08 309.00,333.08
             309.00,333.08 301.00,333.96 301.00,333.96
             301.00,333.96 291.00,333.96 291.00,333.96
             291.00,333.96 273.00,335.87 273.00,335.87
             247.38,339.43 224.22,344.95 201.00,356.76
             189.29,362.71 169.83,375.68 165.00,388.00
             165.00,388.00 178.00,389.83 178.00,389.83
             178.00,389.83 205.00,391.00 205.00,391.00
             235.71,390.95 269.81,380.32 296.00,364.60
             304.52,359.49 312.47,353.61 320.00,347.13
             324.70,343.09 328.27,340.77 331.00,335.00 Z" />
</svg>
